<?xml version="1.0" standalone="no"?>
<!DOCTYPE svg PUBLIC "-//W3C//DTD SVG 20010904//EN"
 "http://www.w3.org/TR/2001/REC-SVG-20010904/DTD/svg10.dtd">
<svg version="1.0" xmlns="http://www.w3.org/2000/svg"
 width="709.000000pt" height="709.000000pt" viewBox="0 0 709.000000 709.000000"
 preserveAspectRatio="xMidYMid meet">
<metadata>
Created by potrace 1.14, written by Peter Selinger 2001-2017
</metadata>
<g transform="translate(0.000000,709.000000) scale(0.100000,-0.100000)"
fill="#000000" stroke="none">
<path d="M1447 4936 c-76 -31 -112 -60 -159 -126 -37 -53 -54 -108 -57 -184
-7 -189 131 -339 319 -350 159 -9 287 61 348 192 23 49 27 70 27 147 0 76 -4
98 -26 146 -58 124 -165 191 -309 196 -70 2 -95 -2 -143 -21z m213 -139 c69
-29 108 -86 114 -164 18 -219 -273 -299 -375 -103 -19 38 -17 139 5 179 49 92
159 130 256 88z"/>
<path d="M3612 4942 c-91 -33 -142 -98 -142 -181 0 -100 65 -162 213 -205 136
-40 163 -58 147 -102 -9 -23 -48 -42 -96 -48 -42 -4 -137 26 -178 58 l-34 26
-36 -49 c-20 -27 -36 -55 -36 -63 0 -9 26 -29 58 -46 202 -108 426 -61 473 99
35 115 -57 218 -231 260 -70 16 -107 34 -120 58 -38 71 105 101 214 45 27 -13
50 -23 51 -22 2 2 17 25 34 52 28 45 29 51 15 67 -53 58 -233 86 -332 51z"/>
<path d="M0 4880 c0 -79 -10 -72 108 -72 47 0 72 -4 73 -11 1 -7 2 -124 3
-262 l1 -250 72 -2 c49 -1 73 3 74 10 1 7 2 125 3 262 l1 250 90 1 90 0 3 72
3 72 -261 0 -260 0 0 -70z"/>
<path d="M589 4938 c0 -7 -1 -157 -1 -333 l0 -320 71 -2 c83 -2 80 -7 80 127
-1 47 0 97 0 111 l1 27 130 -1 c124 -1 130 -2 131 -21 0 -12 2 -70 2 -131 l2
-110 68 -1 c37 0 71 4 74 9 5 8 8 571 4 645 -1 10 -20 12 -73 10 l-73 -3 -1
-122 c0 -68 -2 -125 -5 -127 -4 -5 -112 -8 -209 -7 l-55 1 0 127 0 128 -72 3
c-54 2 -73 0 -74 -10z"/>
<path d="M2007 4943 c-3 -7 -2 -637 2 -654 0 -4 34 -6 74 -5 l72 1 0 207 c0
114 3 204 6 200 4 -4 33 -56 65 -117 92 -177 95 -181 141 -181 l40 0 74 139
c41 77 79 146 84 154 8 10 11 -45 10 -187 0 -110 2 -205 5 -210 3 -5 37 -8 75
-7 l70 2 0 330 0 330 -91 3 -91 3 -61 -113 c-34 -62 -72 -133 -85 -158 -13
-25 -27 -45 -31 -45 -4 0 -25 34 -48 75 -22 41 -60 112 -85 158 l-44 82 -89 0
c-49 0 -91 -3 -93 -7z"/>
<path d="M3022 4938 c-6 -6 -12 -18 -12 -25 0 -7 -6 -27 -14 -45 -33 -77 -216
-567 -216 -577 0 -10 132 -12 147 -3 6 4 20 30 31 57 l20 50 135 3 135 3 19
-58 20 -58 81 -1 c45 0 82 2 82 5 -1 3 -56 152 -124 331 l-122 325 -85 3 c-57
2 -88 -1 -97 -10z m136 -286 l40 -112 -84 0 c-46 0 -84 3 -84 7 0 7 54 160 71
202 5 13 12 22 14 20 2 -3 22 -55 43 -117z"/>
<path d="M2885 4039 c-49 -10 -110 -26 -135 -35 -375 -141 -623 -483 -636
-879 -1 -60 -1 -122 3 -137 l5 -28 178 0 177 0 -5 101 c-5 112 7 184 44 267
13 29 24 55 24 59 0 9 75 107 103 135 130 130 321 198 497 177 81 -10 98 -13
106 -22 4 -4 15 -7 24 -7 41 0 173 -82 241 -149 131 -131 200 -350 166 -523
l-8 -38 179 0 c144 0 181 3 185 14 11 28 5 224 -9 300 -57 298 -246 546 -521
685 -184 92 -414 122 -618 80z"/>
<path d="M4 4031 c-7 -8 -4 -1871 4 -1872 4 -1 85 -2 180 -3 112 -1 176 2 180
8 4 6 7 291 7 633 1 342 3 624 6 627 2 3 37 -59 77 -137 40 -78 114 -223 165
-322 51 -99 129 -249 172 -333 43 -84 83 -156 89 -159 11 -7 204 -8 210 -2 2
2 36 67 76 144 40 77 98 190 130 250 69 132 191 368 251 485 l44 85 5 -640 5
-640 182 0 c118 -1 184 3 186 10 8 20 4 1850 -4 1860 -10 14 -445 13 -458 0
-5 -6 -55 -100 -112 -210 -56 -110 -137 -265 -178 -345 -42 -80 -110 -211
-151 -292 -41 -82 -77 -148 -80 -148 -3 0 -42 73 -88 163 -45 89 -119 232
-163 317 -44 85 -118 229 -164 320 -46 91 -91 174 -99 185 -13 19 -26 20 -241
20 -124 0 -228 -2 -231 -4z"/>
<path d="M4187 4028 c-9 -5 -12 -221 -13 -925 0 -505 3 -925 7 -933 6 -14 34
-16 182 -15 97 0 178 3 182 6 3 4 7 141 8 305 l2 299 178 0 c98 0 182 -2 186
-5 6 -5 112 -170 136 -212 8 -14 205 -332 237 -382 9 -14 377 -17 395 -4 9 7
-1 31 -39 91 -28 45 -109 177 -180 292 -71 116 -138 222 -149 237 -10 15 -19
32 -19 37 0 5 24 23 53 40 63 36 150 118 195 184 217 314 100 755 -243 921
-139 68 -150 69 -653 70 -249 1 -458 -2 -465 -6z m958 -375 c82 -45 132 -107
150 -186 30 -131 -29 -255 -153 -318 -46 -23 -54 -24 -318 -27 l-271 -3 -1
281 -1 281 277 -3 c264 -3 279 -4 317 -25z"/>
<path d="M6152 4024 c-95 -22 -185 -74 -254 -149 -32 -34 -94 -155 -104 -200
-3 -16 -7 -268 -8 -560 -2 -398 1 -546 10 -593 34 -164 169 -306 334 -353 33
-9 165 -13 493 -14 246 0 452 2 458 5 6 4 8 72 7 176 l-3 169 -437 5 -437 5
-23 23 c-22 21 -23 31 -26 202 l-3 180 33 1 c18 0 202 0 409 1 207 0 382 4
389 8 13 8 19 318 6 338 -4 7 -103 11 -289 11 -155 0 -342 0 -414 0 l-133 1 0
169 c0 165 1 171 24 198 l24 28 439 5 438 5 3 173 c2 133 0 172 -10 173 -76 8
-890 2 -926 -7z"/>
<path d="M2200 2691 c0 -2 16 -34 36 -70 114 -205 315 -370 544 -444 105 -34
159 -42 300 -41 126 0 158 4 245 27 180 50 336 145 463 282 60 66 162 218 162
242 0 6 -340 9 -875 9 -481 0 -875 -2 -875 -5z"/>
</g>
</svg>
